<mxfile host="Electron" modified="2023-05-07T09:02:41.607Z" agent="Mozilla/5.0 (Macintosh; Intel Mac OS X 10_15_7) AppleWebKit/537.36 (KHTML, like Gecko) draw.io/21.2.8 Chrome/112.0.5615.165 Electron/24.2.0 Safari/537.36" etag="f4GsZj5sG8laqHyNQxQH" version="21.2.8" type="device">
  <diagram name="Page-1" id="wjA-2ne_4LkL2yLm6ZA9">
    <mxGraphModel dx="984" dy="718" grid="0" gridSize="10" guides="1" tooltips="1" connect="1" arrows="1" fold="1" page="1" pageScale="1" pageWidth="1600" pageHeight="900" background="#FAFAFA" math="0" shadow="0">
      <root>
        <mxCell id="0" />
        <mxCell id="1" parent="0" />
        <mxCell id="IUj2wXnUwpTiUppvs5AR-1" value="Home | Work | About&lt;span style=&quot;white-space: pre; font-size: 21px;&quot;&gt;	&lt;/span&gt;&lt;span style=&quot;white-space: pre; font-size: 21px;&quot;&gt;	&lt;/span&gt;ðŸŽ²&amp;nbsp; &lt;span style=&quot;white-space: pre;&quot;&gt;	&lt;/span&gt;ðŸŒž |ðŸŒ›" style="rounded=1;whiteSpace=wrap;html=1;fontSize=21;strokeColor=none;" vertex="1" parent="1">
          <mxGeometry x="70" y="40" width="640" height="60" as="geometry" />
        </mxCell>
        <mxCell id="IUj2wXnUwpTiUppvs5AR-2" value="Project&lt;br&gt;Blurb" style="rounded=1;whiteSpace=wrap;html=1;fillColor=#F5F5F5;strokeColor=none;" vertex="1" parent="1">
          <mxGeometry x="70" y="180" width="300" height="60" as="geometry" />
        </mxCell>
        <mxCell id="IUj2wXnUwpTiUppvs5AR-3" value="Project&lt;br&gt;Blurb" style="rounded=1;whiteSpace=wrap;html=1;strokeColor=none;" vertex="1" parent="1">
          <mxGeometry x="70" y="250" width="300" height="60" as="geometry" />
        </mxCell>
        <mxCell id="IUj2wXnUwpTiUppvs5AR-4" value="Project&lt;br&gt;Blurb" style="rounded=1;whiteSpace=wrap;html=1;strokeColor=none;" vertex="1" parent="1">
          <mxGeometry x="70" y="320" width="300" height="60" as="geometry" />
        </mxCell>
        <mxCell id="IUj2wXnUwpTiUppvs5AR-5" value="Project&lt;br&gt;Blurb" style="rounded=1;whiteSpace=wrap;html=1;strokeColor=none;" vertex="1" parent="1">
          <mxGeometry x="70" y="390" width="300" height="60" as="geometry" />
        </mxCell>
        <mxCell id="IUj2wXnUwpTiUppvs5AR-6" value="&lt;div style=&quot;font-family: Menlo, Monaco, &amp;quot;Courier New&amp;quot;, monospace; line-height: 18px;&quot;&gt;&lt;p style=&quot;&quot;&gt;&lt;font&gt;&lt;br&gt;&lt;/font&gt;&lt;/p&gt;&lt;p style=&quot;&quot;&gt;&lt;font&gt;&lt;br&gt;&lt;/font&gt;&lt;/p&gt;&lt;p style=&quot;&quot;&gt;&lt;font&gt;&lt;br&gt;&lt;/font&gt;&lt;/p&gt;&lt;p style=&quot;&quot;&gt;&lt;font&gt;&lt;br&gt;&lt;/font&gt;&lt;/p&gt;&lt;p style=&quot;&quot;&gt;&lt;font&gt;&lt;br&gt;&lt;/font&gt;&lt;/p&gt;&lt;p style=&quot;&quot;&gt;&lt;font&gt;&lt;br&gt;&lt;/font&gt;&lt;/p&gt;&lt;p style=&quot;&quot;&gt;&lt;font&gt;&lt;br&gt;&lt;/font&gt;&lt;/p&gt;&lt;p style=&quot;&quot;&gt;&lt;font&gt;&lt;br&gt;&lt;/font&gt;&lt;/p&gt;&lt;p style=&quot;&quot;&gt;&lt;font&gt;&lt;br&gt;&lt;/font&gt;&lt;/p&gt;&lt;p style=&quot;&quot;&gt;&lt;font&gt;&lt;br&gt;&lt;/font&gt;&lt;/p&gt;&lt;p style=&quot;&quot;&gt;&lt;font&gt;&lt;br&gt;&lt;/font&gt;&lt;/p&gt;&lt;p style=&quot;&quot;&gt;&lt;font&gt;Project Goal Description&lt;br&gt;&lt;br&gt;        &lt;/font&gt;&lt;/p&gt;&lt;p style=&quot;&quot;&gt;&lt;font&gt;Process&lt;br&gt;&lt;br&gt;        &lt;/font&gt;&lt;/p&gt;&lt;p style=&quot;&quot;&gt;&lt;font&gt;Languages&lt;br&gt;&lt;br&gt;        &lt;/font&gt;&lt;/p&gt;&lt;p style=&quot;&quot;&gt;&lt;font&gt;Links:&lt;br&gt;            &amp;gt;card page (for sharing purposes)&lt;br&gt;            &amp;gt;github page&lt;br&gt;            &amp;gt;live link&lt;/font&gt;&lt;/p&gt;&lt;/div&gt;" style="rounded=1;whiteSpace=wrap;html=1;arcSize=5;fontColor=#000000;labelBackgroundColor=none;strokeColor=none;" vertex="1" parent="1">
          <mxGeometry x="380" y="180" width="330" height="600" as="geometry" />
        </mxCell>
        <mxCell id="IUj2wXnUwpTiUppvs5AR-7" value="Projects Slider" style="rounded=1;whiteSpace=wrap;html=1;arcSize=50;strokeColor=none;" vertex="1" parent="1">
          <mxGeometry x="320" y="110" width="120" height="60" as="geometry" />
        </mxCell>
        <mxCell id="IUj2wXnUwpTiUppvs5AR-9" value="&lt;div style=&quot;font-family: Menlo, Monaco, &amp;quot;Courier New&amp;quot;, monospace; line-height: 18px;&quot;&gt;&lt;p style=&quot;&quot;&gt;&lt;br&gt;&lt;/p&gt;&lt;/div&gt;" style="rounded=1;whiteSpace=wrap;html=1;arcSize=5;labelBackgroundColor=none;strokeColor=none;fillColor=#dae8fc;" vertex="1" parent="1">
          <mxGeometry x="380" y="180" width="330" height="300" as="geometry" />
        </mxCell>
      </root>
    </mxGraphModel>
  </diagram>
</mxfile>
